<svg width="225" height="216" viewBox="0 0 225 216" fill="none" xmlns="http://www.w3.org/2000/svg">
<path d="M218.55 98.378L173.45 137.738L186.96 196.338C187.675 199.401 187.471 202.608 186.374 205.556C185.276 208.504 183.334 211.063 180.79 212.913C178.246 214.764 175.213 215.823 172.07 215.959C168.928 216.095 165.815 215.302 163.12 213.678L112.01 182.678L61.0102 213.678C58.3159 215.302 55.2028 216.095 52.06 215.959C48.9171 215.823 45.8842 214.764 43.3402 212.913C40.7962 211.063 38.8541 208.504 37.7567 205.556C36.6593 202.608 36.4553 199.401 37.1702 196.338L50.6602 137.798L5.55022 98.378C3.16431 96.3202 1.43904 93.6038 0.590782 90.5695C-0.257481 87.5351 -0.190981 84.3178 0.781942 81.3211C1.75486 78.3244 3.5909 75.6816 6.0598 73.7242C8.52871 71.7667 11.5206 70.5818 14.6602 70.318L74.1202 65.168L97.3302 9.808C98.5423 6.90317 100.587 4.42188 103.206 2.67658C105.825 0.931281 108.903 0 112.05 0C115.198 0 118.275 0.931281 120.894 2.67658C123.514 4.42188 125.558 6.90317 126.77 9.808L150.05 65.168L209.49 70.318C212.63 70.5818 215.622 71.7667 218.091 73.7242C220.56 75.6816 222.396 78.3244 223.368 81.3211C224.341 84.3178 224.408 87.5351 223.56 90.5695C222.711 93.6038 220.986 96.3202 218.6 98.378H218.55Z" fill="#EDC253"/>
</svg>
