<svg width="18" height="21" viewBox="0 0 18 21" fill="none" xmlns="http://www.w3.org/2000/svg">
<path d="M15.3636 15.4607L10.469 20.3874C10.2762 20.5816 10.0471 20.7357 9.79508 20.8408C9.54301 20.9459 9.27283 21 8.99998 21C8.72712 21 8.45694 20.9459 8.20488 20.8408C7.95281 20.7357 7.7238 20.5816 7.53092 20.3874L2.63638 15.4607C1.80061 14.6198 1.13762 13.6215 0.68527 12.5227C0.232919 11.4239 6.43079e-05 10.2463 1.33181e-08 9.05698C-6.42813e-05 7.86766 0.232663 6.68998 0.684895 5.59117C1.13713 4.49236 1.80001 3.49395 2.63569 2.65293C3.47137 1.81191 4.46348 1.14476 5.55538 0.689572C6.64729 0.234382 7.81759 6.46939e-05 8.99949 1.33944e-08C10.1814 -6.46671e-05 11.3517 0.234124 12.4437 0.689195C13.5356 1.14427 14.5278 1.81131 15.3636 2.65223C16.1994 3.49321 16.8625 4.49163 17.3148 5.59048C17.7672 6.68933 18 7.86708 18 9.05648C18 10.2459 17.7672 11.4236 17.3148 12.5225C16.8625 13.6213 16.1994 14.6198 15.3636 15.4607ZM13.8959 4.13051C13.253 3.48353 12.4897 2.97032 11.6496 2.62018C10.8096 2.27004 9.90924 2.08982 8.99998 2.08982C8.09072 2.08982 7.19036 2.27004 6.35032 2.62018C5.51028 2.97032 4.74699 3.48353 4.10405 4.13051C3.46111 4.77749 2.9511 5.54557 2.60314 6.39089C2.25518 7.23621 2.07609 8.14221 2.07609 9.05718C2.07609 9.97215 2.25518 10.8782 2.60314 11.7235C2.9511 12.5688 3.46111 13.3369 4.10405 13.9838L8.99998 18.9077L13.8959 13.9838C14.539 13.3369 15.0491 12.5689 15.3971 11.7235C15.7451 10.8782 15.9242 9.97218 15.9242 9.05718C15.9242 8.14218 15.7451 7.23614 15.3971 6.39081C15.0491 5.54549 14.539 4.77743 13.8959 4.13051ZM8.99998 11.8438C8.63121 11.8521 8.26448 11.7863 7.92134 11.6501C7.5782 11.5139 7.26556 11.3101 7.00177 11.0507C6.73798 10.7912 6.52835 10.4814 6.38521 10.1393C6.24206 9.79719 6.16827 9.42977 6.16818 9.05859C6.16809 8.68741 6.24169 8.31995 6.38467 7.97778C6.52765 7.63562 6.73711 7.32565 7.00078 7.06607C7.26444 6.80649 7.57698 6.60253 7.92006 6.46617C8.26313 6.32981 8.62982 6.26379 8.99859 6.272C9.72213 6.2881 10.4107 6.58859 10.9168 7.10914C11.4229 7.62969 11.7064 8.32894 11.7066 9.0572C11.7067 9.78545 11.4236 10.4848 10.9177 11.0056C10.4119 11.5265 9.72351 11.8273 8.99998 11.8438Z" fill="#415A77"/>
</svg>
