<svg width="482" height="172" viewBox="0 0 482 172" fill="none" xmlns="http://www.w3.org/2000/svg">
<path d="M469.068 109.709V96.7539H482V109.709H469.068Z" fill="#415A77"/>
<path d="M435.04 111.138C428.574 111.138 423.344 109.678 419.351 106.756C415.389 103.803 412.98 99.6435 412.124 94.2771L425.341 92.2766C425.88 94.6899 427.068 96.5793 428.907 97.9447C430.777 99.3101 433.138 99.9928 435.991 99.9928C438.336 99.9928 440.143 99.5483 441.41 98.6592C442.678 97.7383 443.312 96.4682 443.312 94.8487C443.312 93.8326 443.059 93.0229 442.551 92.4195C442.044 91.7845 440.903 91.1653 439.128 90.5619C437.385 89.9586 434.659 89.1648 430.951 88.1804C426.767 87.1008 423.423 85.8941 420.92 84.5605C418.416 83.2268 416.609 81.6391 415.5 79.7974C414.39 77.9239 413.836 75.6694 413.836 73.0338C413.836 69.7314 414.676 66.8736 416.355 64.4603C418.035 62.0152 420.397 60.1418 423.439 58.8398C426.514 57.5062 430.127 56.8394 434.279 56.8394C438.304 56.8394 441.87 57.4586 444.976 58.6969C448.082 59.9354 450.586 61.6977 452.488 63.984C454.421 66.2702 455.61 68.9693 456.054 72.0812L442.837 74.4627C442.615 72.5575 441.791 71.0492 440.364 69.9378C438.938 68.8264 437.005 68.1755 434.564 67.985C432.187 67.8262 430.27 68.1437 428.812 68.9376C427.385 69.7314 426.672 70.8746 426.672 72.367C426.672 73.2561 426.973 74.0023 427.575 74.6056C428.209 75.209 429.493 75.8282 431.426 76.4632C433.392 77.0983 436.371 77.9239 440.364 78.94C444.263 79.9562 447.385 81.1469 449.73 82.5123C452.107 83.846 453.835 85.4654 454.912 87.3707C455.99 89.2442 456.529 91.5146 456.529 94.1819C456.529 99.453 454.627 103.597 450.824 106.614C447.02 109.63 441.759 111.138 435.04 111.138Z" fill="#1E1E1E"/>
<path d="M383.04 111.138C376.574 111.138 371.344 109.678 367.351 106.756C363.389 103.803 360.98 99.6435 360.124 94.2771L373.341 92.2766C373.88 94.6899 375.069 96.5793 376.907 97.9447C378.777 99.3101 381.138 99.9928 383.991 99.9928C386.336 99.9928 388.143 99.5483 389.411 98.6592C390.678 97.7383 391.312 96.4682 391.312 94.8487C391.312 93.8326 391.059 93.0229 390.552 92.4195C390.045 91.7845 388.904 91.1653 387.129 90.5619C385.385 89.9586 382.66 89.1648 378.951 88.1804C374.767 87.1008 371.424 85.8941 368.92 84.5605C366.416 83.2268 364.609 81.6391 363.5 79.7974C362.391 77.9239 361.836 75.6694 361.836 73.0338C361.836 69.7314 362.676 66.8736 364.356 64.4603C366.036 62.0152 368.397 60.1418 371.439 58.8398C374.514 57.5062 378.127 56.8394 382.279 56.8394C386.305 56.8394 389.87 57.4586 392.976 58.6969C396.082 59.9354 398.586 61.6977 400.488 63.984C402.421 66.2702 403.61 68.9693 404.054 72.0812L390.837 74.4627C390.615 72.5575 389.791 71.0492 388.365 69.9378C386.938 68.8264 385.005 68.1755 382.564 67.985C380.187 67.8262 378.27 68.1437 376.812 68.9376C375.386 69.7314 374.672 70.8746 374.672 72.367C374.672 73.2561 374.973 74.0023 375.576 74.6056C376.21 75.209 377.493 75.8282 379.427 76.4632C381.392 77.0983 384.371 77.9239 388.365 78.94C392.263 79.9562 395.385 81.1469 397.731 82.5123C400.108 83.846 401.835 85.4654 402.913 87.3707C403.99 89.2442 404.529 91.5146 404.529 94.1819C404.529 99.453 402.627 103.597 398.824 106.614C395.021 109.63 389.759 111.138 383.04 111.138Z" fill="#1E1E1E"/>
<path d="M328.994 111.138C323.732 111.138 319.089 110.011 315.064 107.757C311.07 105.47 307.932 102.343 305.65 98.3734C303.4 94.3724 302.275 89.7998 302.275 84.6557C302.275 79.0353 303.384 74.1452 305.603 69.9854C307.821 65.8257 310.88 62.6027 314.778 60.3164C318.677 57.9984 323.162 56.8394 328.233 56.8394C333.621 56.8394 338.201 58.1095 341.973 60.6498C345.744 63.1901 348.534 66.7624 350.34 71.3667C352.147 75.971 352.781 81.3851 352.242 87.6088H339.453V82.8458C339.453 77.6064 338.613 73.8435 336.933 71.5573C335.285 69.2392 332.575 68.0802 328.803 68.0802C324.398 68.0802 321.149 69.4298 319.057 72.1288C316.997 74.7962 315.967 78.7495 315.967 83.9889C315.967 88.7837 316.997 92.4989 319.057 95.1345C321.149 97.7383 324.208 99.0402 328.233 99.0402C330.769 99.0402 332.94 98.4845 334.746 97.3731C336.553 96.2618 337.932 94.6582 338.882 92.5624L351.814 96.2776C349.881 100.977 346.822 104.629 342.638 107.233C338.486 109.837 333.938 111.138 328.994 111.138ZM311.973 87.6088V77.9874H346.014V87.6088H311.973Z" fill="#1E1E1E"/>
<path d="M277.332 108.492V0H290.538V108.492H277.332Z" fill="#1E1E1E"/>
<path d="M242.854 111.139C237.751 111.139 233.488 109.948 230.065 107.566C226.642 105.185 224.059 101.946 222.315 97.8496C220.604 93.7533 219.748 89.1332 219.748 83.989C219.748 78.8449 220.604 74.2247 222.315 70.1285C224.027 66.0322 226.547 62.7933 229.875 60.4118C233.203 58.0303 237.307 56.8395 242.188 56.8395C247.101 56.8395 251.38 58.0144 255.025 60.3642C258.67 62.714 261.49 65.937 263.487 70.0332C265.516 74.0977 266.53 78.7496 266.53 83.989C266.53 89.1332 265.532 93.7533 263.535 97.8496C261.57 101.946 258.812 105.185 255.262 107.566C251.713 109.948 247.576 111.139 242.854 111.139ZM217.561 109.71V41.1213H230.588V74.4629H228.971V109.71H217.561ZM240.762 99.6119C243.551 99.6119 245.833 98.9133 247.608 97.5162C249.383 96.119 250.698 94.2455 251.554 91.8957C252.41 89.5142 252.838 86.8786 252.838 83.989C252.838 81.1312 252.394 78.5274 251.507 76.1776C250.619 73.796 249.24 71.9067 247.37 70.5095C245.532 69.0806 243.171 68.3661 240.286 68.3661C237.592 68.3661 235.405 69.0171 233.726 70.319C232.077 71.6209 230.873 73.4468 230.112 75.7965C229.352 78.1463 228.971 80.8772 228.971 83.989C228.971 87.1009 229.352 89.8317 230.112 92.1815C230.873 94.5313 232.109 96.3572 233.821 97.6591C235.564 98.961 237.878 99.6119 240.762 99.6119Z" fill="#415A77"/>
<path d="M181.148 111.138C175.982 111.138 171.449 109.979 167.551 107.661C163.652 105.343 160.609 102.152 158.422 98.0876C156.267 93.9913 155.19 89.2918 155.19 83.9889C155.19 78.6225 156.299 73.907 158.518 69.8426C160.736 65.7463 163.795 62.555 167.693 60.2688C171.592 57.9825 176.077 56.8394 181.148 56.8394C186.314 56.8394 190.847 57.9984 194.745 60.3164C198.675 62.6344 201.734 65.8416 203.921 69.9378C206.108 74.0023 207.201 78.686 207.201 83.9889C207.201 89.3235 206.092 94.039 203.873 98.1352C201.686 102.2 198.628 105.391 194.698 107.709C190.799 109.995 186.282 111.138 181.148 111.138ZM181.148 99.0402C185.3 99.0402 188.39 97.643 190.419 94.8487C192.479 92.0226 193.509 88.4027 193.509 83.9889C193.509 79.4163 192.463 75.7646 190.371 73.0338C188.311 70.303 185.237 68.9376 181.148 68.9376C178.327 68.9376 176.013 69.5726 174.207 70.8428C172.4 72.113 171.053 73.8753 170.166 76.1298C169.31 78.3843 168.882 81.004 168.882 83.9889C168.882 88.5932 169.912 92.2608 171.972 94.9916C174.064 97.6907 177.123 99.0402 181.148 99.0402Z" fill="#415A77"/>
<path d="M132.239 172V162.55L132.239 151.918L132.063 155.462C132.151 153.69 132.122 154.28 132.239 151.918C132.464 149.555 132.464 147.303 132.464 143.774V66.1539H145.269V152.731C145.269 158.566 145.269 168.06 145.269 172C141.064 172 136.539 172 132.239 172ZM132.464 55.9764V39.6924H145.269V55.9764H132.464Z" fill="#415A77"/>
<path d="M103.984 109.71V85.4179C103.984 84.243 103.921 82.7505 103.794 80.9406C103.667 79.0989 103.271 77.2571 102.605 75.4154C101.94 73.5737 100.846 72.0336 99.3248 70.7952C97.8351 69.5568 95.7115 68.9376 92.954 68.9376C91.8447 68.9376 90.6561 69.1123 89.3883 69.4616C88.1205 69.8109 86.932 70.4936 85.8226 71.5097C84.7133 72.4941 83.7942 73.9547 83.0652 75.8917C82.3679 77.8287 82.0192 80.4008 82.0192 83.6079L74.6026 80.0832C74.6026 76.0187 75.4266 72.2083 77.0748 68.6518C78.7229 65.0954 81.1952 62.2217 84.4914 60.0307C87.8194 57.8396 92.0032 56.7441 97.0427 56.7441C101.068 56.7441 104.348 57.4269 106.884 58.7923C109.42 60.1577 111.385 61.8883 112.779 63.984C114.206 66.0798 115.22 68.2708 115.822 70.5571C116.424 72.8116 116.789 74.8756 116.916 76.7491C117.042 78.6225 117.106 79.988 117.106 80.8453V109.71H103.984ZM68.8975 109.71V58.2683H80.4028V75.3201H82.0192V109.71H68.8975Z" fill="#1E1E1E"/>
<path d="M27.86 111.139C22.345 111.139 17.4957 110.027 13.3119 107.804C9.12819 105.55 5.86359 102.39 3.51816 98.3259C1.17272 94.2614 0 89.4824 0 83.989V41.2166L13.1218 41.1213V83.8938C13.1218 86.1483 13.5021 88.1964 14.2628 90.0381C15.0235 91.8799 16.0694 93.4676 17.4006 94.8012C18.7635 96.1349 20.3324 97.1669 22.1073 97.8972C23.914 98.5958 25.8315 98.9451 27.86 98.9451C29.9519 98.9451 31.8853 98.5799 33.6602 97.8496C35.4668 97.1193 37.0357 96.0873 38.3669 94.7536C39.6981 93.4199 40.7282 91.8322 41.4572 89.9905C42.2179 88.1488 42.5982 86.1165 42.5982 83.8938V41.1213H55.72V83.989C55.72 89.4824 54.5473 94.2614 52.2018 98.3259C49.8564 102.39 46.5918 105.55 42.408 107.804C38.2243 110.027 33.3749 111.139 27.86 111.139Z" fill="#1E1E1E"/>
</svg>
