<svg width="25" height="23" viewBox="0 0 25 23" fill="none" xmlns="http://www.w3.org/2000/svg">
<path d="M13.4441 1.41789C14.6976 0.514457 16.1516 0.0627386 17.7937 0.0627386C18.6962 0.0627386 19.6864 0.301146 20.7644 0.803055C21.8424 1.29242 22.6948 1.86961 23.3215 2.53464C24.6126 4.14075 25.1516 6.01037 24.9636 8.14348C24.763 10.2766 24.0611 11.9454 22.8452 13.1249L13.3313 22.6487C13.0931 22.8871 12.7923 23 12.4413 23C12.0903 23 11.802 22.8871 11.5639 22.6487C11.4481 22.5343 11.3572 22.3973 11.2968 22.2462C11.2364 22.095 11.2078 21.933 11.2129 21.7703C11.2129 21.419 11.3257 21.1178 11.5639 20.8794L17.3173 15.12C17.6307 14.844 17.6307 14.5554 17.3173 14.2417C17.004 13.928 16.7157 13.928 16.4399 14.2417L10.6864 20.0011C10.5704 20.1181 10.4314 20.2097 10.2782 20.2702C10.125 20.3306 9.961 20.3586 9.79645 20.3524C9.44548 20.3524 9.15718 20.2395 8.91901 20.0011C8.80324 19.8868 8.71231 19.7497 8.65192 19.5986C8.59152 19.4475 8.56297 19.2855 8.56804 19.1227C8.56804 18.7714 8.68085 18.4703 8.91901 18.2319L14.6725 12.4725C15.0109 12.1588 15.0109 11.8451 14.6725 11.5314C14.3842 11.2177 14.1084 11.2177 13.7951 11.5314L8.04158 17.3535C7.92425 17.4687 7.78503 17.5591 7.63216 17.6195C7.47929 17.6798 7.31588 17.7089 7.1516 17.7049C6.80063 17.7049 6.49979 17.5919 6.23656 17.3535C5.98587 17.1151 5.86052 16.8265 5.86052 16.4752C5.86052 16.1238 5.9984 15.8101 6.27417 15.5341L12.0402 9.76214C12.3536 9.44845 12.3536 9.15985 12.0402 8.8838C11.7268 8.60775 11.426 8.60775 11.1502 8.8838L5.33405 14.6683C5.05829 14.9193 4.76999 15.0573 4.45662 15.0573C4.10564 15.0573 3.80481 14.9318 3.57918 14.6683C3.34102 14.4173 3.21567 14.1162 3.21567 13.7649C3.21567 13.4135 3.34102 13.1249 3.57918 12.8865C7.41483 9.02182 9.78392 6.68794 10.6864 5.82215L15.1488 10.239C15.6377 10.7032 16.2017 10.9416 16.8912 10.9416C17.7686 10.9416 18.458 10.5903 18.9719 9.88762C19.3229 9.37316 19.4483 8.80851 19.348 8.18112C19.2477 7.55374 18.9845 7.02673 18.5583 6.58756L13.4441 1.41789ZM16.0263 9.36061L10.6864 4.00273L1.81177 12.8865C0.758845 11.82 0.157173 10.1888 0.0192904 7.96781C-0.118593 5.75941 0.483079 3.83961 1.81177 2.2335C3.30341 0.752865 5.08336 0 7.1516 0C9.23238 0 10.9998 0.752865 12.4413 2.2335L17.7937 7.59138C18.0318 7.82979 18.1446 8.11839 18.1446 8.46972C18.1446 8.82106 18.0318 9.1222 17.7937 9.36061C17.5555 9.58647 17.2672 9.71195 16.8912 9.71195C16.5527 9.71195 16.2644 9.58647 16.0263 9.36061Z" fill="#D2D0D0"/>
</svg>
